<svg width="512" height="30" viewBox="0 0 512 30" fill="none" xmlns="http://www.w3.org/2000/svg">
<rect x="0.5" y="0.5" width="29" height="29" fill="white" stroke="black"/>
<path d="M40.8335 24V6.54545H47.8221C49.1062 6.54545 50.1772 6.7358 51.0352 7.11648C51.8931 7.49716 52.538 8.02557 52.9698 8.7017C53.4016 9.37216 53.6175 10.1449 53.6175 11.0199C53.6175 11.7017 53.4812 12.3011 53.2085 12.8182C52.9357 13.3295 52.5607 13.75 52.0835 14.0795C51.6119 14.4034 51.0721 14.6335 50.4641 14.7699V14.9403C51.1289 14.9687 51.7511 15.1562 52.3306 15.5028C52.9158 15.8494 53.3903 16.3352 53.7539 16.9602C54.1175 17.5795 54.2994 18.3182 54.2994 19.1761C54.2994 20.1023 54.0692 20.929 53.609 21.6562C53.1545 22.3778 52.4812 22.9489 51.5891 23.3693C50.6971 23.7898 49.5977 24 48.2908 24H40.8335ZM44.5238 20.983H47.5323C48.5607 20.983 49.3107 20.7869 49.7823 20.3949C50.2539 19.9972 50.4897 19.4687 50.4897 18.8097C50.4897 18.3267 50.3732 17.9006 50.1403 17.5312C49.9073 17.1619 49.5749 16.8722 49.1431 16.6619C48.717 16.4517 48.2085 16.3466 47.6175 16.3466H44.5238V20.983ZM44.5238 13.8494H47.2596C47.7653 13.8494 48.2141 13.7614 48.6062 13.5852C49.0039 13.4034 49.3164 13.1477 49.5437 12.8182C49.7766 12.4886 49.8931 12.0938 49.8931 11.6335C49.8931 11.0028 49.6687 10.4943 49.2198 10.108C48.7766 9.72159 48.146 9.52841 47.3278 9.52841H44.5238V13.8494ZM56.6325 24V10.9091H60.2631V24H56.6325ZM58.4563 9.22159C57.9165 9.22159 57.4535 9.04261 57.0671 8.68466C56.6864 8.32102 56.4961 7.88636 56.4961 7.38068C56.4961 6.88068 56.6864 6.4517 57.0671 6.09375C57.4535 5.73011 57.9165 5.54829 58.4563 5.54829C58.9961 5.54829 59.4563 5.73011 59.837 6.09375C60.2234 6.4517 60.4165 6.88068 60.4165 7.38068C60.4165 7.88636 60.2234 8.32102 59.837 8.68466C59.4563 9.04261 58.9961 9.22159 58.4563 9.22159ZM69.0692 29.1818C67.8931 29.1818 66.8846 29.0199 66.0437 28.696C65.2085 28.3778 64.5437 27.9432 64.0494 27.392C63.555 26.8409 63.234 26.2216 63.0863 25.5341L66.4442 25.0824C66.5465 25.3438 66.7085 25.5881 66.93 25.8153C67.1516 26.0426 67.4442 26.2244 67.8079 26.3608C68.1772 26.5028 68.6261 26.5739 69.1545 26.5739C69.9442 26.5739 70.5948 26.3807 71.1062 25.9943C71.6232 25.6136 71.8817 24.9744 71.8817 24.0767V21.6818H71.7283C71.5692 22.0455 71.3306 22.3892 71.0124 22.7131C70.6942 23.0369 70.2852 23.3011 69.7852 23.5057C69.2852 23.7102 68.6886 23.8125 67.9954 23.8125C67.0124 23.8125 66.1175 23.5852 65.3107 23.1307C64.5096 22.6705 63.8704 21.9687 63.3931 21.0256C62.9215 20.0767 62.6857 18.8778 62.6857 17.429C62.6857 15.946 62.9272 14.7074 63.4102 13.7131C63.8931 12.7187 64.5352 11.9744 65.3363 11.4801C66.1431 10.9858 67.0266 10.7386 67.9869 10.7386C68.7198 10.7386 69.3335 10.8636 69.8278 11.1136C70.3221 11.358 70.7198 11.6648 71.021 12.0341C71.3278 12.3977 71.5636 12.7557 71.7283 13.108H71.8647V10.9091H75.4698V24.1278C75.4698 25.2415 75.1971 26.1733 74.6516 26.9233C74.1062 27.6733 73.3505 28.2358 72.3846 28.6108C71.4244 28.9915 70.3192 29.1818 69.0692 29.1818ZM69.146 21.0852C69.7312 21.0852 70.2255 20.9403 70.6289 20.6506C71.038 20.3551 71.3505 19.9347 71.5664 19.3892C71.788 18.8381 71.8988 18.179 71.8988 17.4119C71.8988 16.6449 71.7908 15.9801 71.5749 15.4176C71.359 14.8494 71.0465 14.4091 70.6374 14.0966C70.2283 13.7841 69.7312 13.6278 69.146 13.6278C68.5494 13.6278 68.0465 13.7898 67.6374 14.1136C67.2283 14.4318 66.9187 14.875 66.7085 15.4432C66.4982 16.0114 66.3931 16.6676 66.3931 17.4119C66.3931 18.1676 66.4982 18.821 66.7085 19.3722C66.9244 19.9176 67.234 20.3409 67.6374 20.642C68.0465 20.9375 68.5494 21.0852 69.146 21.0852ZM95.5558 12.1875C95.4364 11.7727 95.2688 11.4062 95.0529 11.0881C94.837 10.7642 94.5728 10.4915 94.2603 10.2699C93.9535 10.0426 93.6012 9.86932 93.2035 9.75C92.8114 9.63068 92.3768 9.57102 91.8995 9.57102C91.0075 9.57102 90.2234 9.79261 89.5472 10.2358C88.8768 10.679 88.354 11.3239 87.979 12.1705C87.604 13.0114 87.4165 14.0398 87.4165 15.2557C87.4165 16.4716 87.6012 17.5057 87.9705 18.358C88.3398 19.2102 88.8626 19.8608 89.5387 20.3097C90.2148 20.7528 91.0131 20.9744 91.9336 20.9744C92.7688 20.9744 93.4819 20.8267 94.0728 20.5312C94.6694 20.2301 95.1239 19.8068 95.4364 19.2614C95.7546 18.7159 95.9137 18.071 95.9137 17.3267L96.6637 17.4375H92.1637V14.6591H99.4677V16.858C99.4677 18.392 99.1438 19.7102 98.4961 20.8125C97.8484 21.9091 96.9563 22.7557 95.82 23.3523C94.6836 23.9432 93.3825 24.2386 91.9165 24.2386C90.2802 24.2386 88.8427 23.8778 87.604 23.1562C86.3654 22.429 85.3995 21.3977 84.7063 20.0625C84.0188 18.7216 83.6751 17.1307 83.6751 15.2898C83.6751 13.875 83.8796 12.6136 84.2887 11.5057C84.7035 10.392 85.283 9.44886 86.0273 8.67614C86.7717 7.90341 87.6381 7.31534 88.6268 6.91193C89.6154 6.50852 90.6864 6.30682 91.8398 6.30682C92.8285 6.30682 93.7489 6.4517 94.6012 6.74148C95.4535 7.02557 96.2092 7.42898 96.8683 7.9517C97.533 8.47443 98.0756 9.09659 98.4961 9.81818C98.9165 10.5341 99.1864 11.3239 99.3058 12.1875H95.5558ZM102.172 24V10.9091H105.691V13.1932H105.828C106.066 12.3807 106.467 11.767 107.029 11.3523C107.592 10.9318 108.24 10.7216 108.973 10.7216C109.154 10.7216 109.35 10.733 109.561 10.7557C109.771 10.7784 109.956 10.8097 110.115 10.8494V14.071C109.944 14.0199 109.708 13.9744 109.407 13.9347C109.106 13.8949 108.831 13.875 108.581 13.875C108.047 13.875 107.569 13.9915 107.149 14.2244C106.734 14.4517 106.404 14.7699 106.16 15.179C105.922 15.5881 105.802 16.0597 105.802 16.5938V24H102.172ZM115.35 24.2472C114.515 24.2472 113.77 24.1023 113.117 23.8125C112.463 23.517 111.946 23.0824 111.566 22.5085C111.191 21.929 111.003 21.2074 111.003 20.3438C111.003 19.6165 111.137 19.0057 111.404 18.5114C111.671 18.017 112.034 17.6193 112.495 17.3182C112.955 17.017 113.478 16.7898 114.063 16.6364C114.654 16.483 115.273 16.375 115.921 16.3125C116.682 16.233 117.296 16.1591 117.762 16.0909C118.228 16.017 118.566 15.9091 118.776 15.767C118.986 15.625 119.091 15.4148 119.091 15.1364V15.0852C119.091 14.5455 118.921 14.1278 118.58 13.8324C118.245 13.5369 117.767 13.3892 117.148 13.3892C116.495 13.3892 115.975 13.5341 115.588 13.8239C115.202 14.108 114.946 14.4659 114.821 14.8977L111.463 14.625C111.634 13.8295 111.969 13.142 112.469 12.5625C112.969 11.9773 113.614 11.5284 114.404 11.2159C115.199 10.8977 116.12 10.7386 117.165 10.7386C117.892 10.7386 118.588 10.8239 119.253 10.9943C119.924 11.1648 120.517 11.429 121.034 11.7869C121.557 12.1449 121.969 12.6051 122.27 13.1676C122.571 13.7244 122.722 14.392 122.722 15.1705V24H119.279V22.1847H119.176C118.966 22.5938 118.685 22.9545 118.333 23.267C117.98 23.5739 117.557 23.8153 117.063 23.9915C116.569 24.1619 115.998 24.2472 115.35 24.2472ZM116.39 21.7415C116.924 21.7415 117.395 21.6364 117.804 21.4261C118.213 21.2102 118.534 20.9205 118.767 20.5568C119 20.1932 119.117 19.7812 119.117 19.321V17.9318C119.003 18.0057 118.847 18.0739 118.648 18.1364C118.455 18.1932 118.236 18.2472 117.992 18.2983C117.748 18.3437 117.503 18.3864 117.259 18.4261C117.015 18.4602 116.793 18.4915 116.594 18.5199C116.168 18.5824 115.796 18.6818 115.478 18.8182C115.159 18.9545 114.912 19.1392 114.736 19.3722C114.56 19.5994 114.472 19.8835 114.472 20.2244C114.472 20.7188 114.651 21.0966 115.009 21.358C115.373 21.6136 115.833 21.7415 116.39 21.7415ZM127.311 28.9091C126.851 28.9091 126.419 28.8722 126.016 28.7983C125.618 28.7301 125.289 28.642 125.027 28.5341L125.846 25.8239C126.272 25.9545 126.655 26.0256 126.996 26.0369C127.343 26.0483 127.641 25.9688 127.891 25.7983C128.147 25.6278 128.354 25.3381 128.513 24.929L128.726 24.375L124.03 10.9091H127.848L130.559 20.5227H130.695L133.431 10.9091H137.275L132.186 25.4148C131.942 26.1193 131.61 26.733 131.189 27.2557C130.775 27.7841 130.249 28.1903 129.613 28.4744C128.976 28.7642 128.209 28.9091 127.311 28.9091Z" fill="black"/>
<rect x="321.5" y="0.5" width="79" height="29" fill="white" stroke="black"/>
<path d="M418.199 17.9318H421.335L422.912 19.9602L424.463 21.767L427.386 25.4318H423.943L421.932 22.9602L420.901 21.4943L418.199 17.9318ZM427.651 15.2727C427.651 17.1761 427.29 18.7955 426.568 20.1307C425.852 21.4659 424.875 22.4858 423.636 23.1903C422.403 23.8892 421.017 24.2386 419.477 24.2386C417.926 24.2386 416.534 23.8864 415.301 23.1818C414.068 22.4773 413.094 21.4574 412.378 20.1222C411.662 18.7869 411.304 17.1705 411.304 15.2727C411.304 13.3693 411.662 11.75 412.378 10.4148C413.094 9.07955 414.068 8.0625 415.301 7.36364C416.534 6.65909 417.926 6.30682 419.477 6.30682C421.017 6.30682 422.403 6.65909 423.636 7.36364C424.875 8.0625 425.852 9.07955 426.568 10.4148C427.29 11.75 427.651 13.3693 427.651 15.2727ZM423.909 15.2727C423.909 14.0398 423.724 13 423.355 12.1534C422.991 11.3068 422.477 10.6648 421.812 10.2273C421.148 9.78977 420.369 9.57102 419.477 9.57102C418.585 9.57102 417.807 9.78977 417.142 10.2273C416.477 10.6648 415.96 11.3068 415.591 12.1534C415.227 13 415.045 14.0398 415.045 15.2727C415.045 16.5057 415.227 17.5455 415.591 18.392C415.96 19.2386 416.477 19.8807 417.142 20.3182C417.807 20.7557 418.585 20.9744 419.477 20.9744C420.369 20.9744 421.148 20.7557 421.812 20.3182C422.477 19.8807 422.991 19.2386 423.355 18.392C423.724 17.5455 423.909 16.5057 423.909 15.2727ZM438.711 18.4261V10.9091H442.342V24H438.856V21.6222H438.719C438.424 22.3892 437.933 23.0057 437.245 23.4716C436.563 23.9375 435.731 24.1705 434.748 24.1705C433.873 24.1705 433.103 23.9716 432.438 23.5739C431.773 23.1761 431.254 22.6108 430.879 21.8778C430.509 21.1449 430.322 20.267 430.316 19.2443V10.9091H433.947V18.5966C433.952 19.3693 434.16 19.9801 434.569 20.429C434.978 20.8778 435.526 21.1023 436.214 21.1023C436.651 21.1023 437.06 21.0028 437.441 20.804C437.822 20.5994 438.129 20.2983 438.362 19.9006C438.6 19.5028 438.717 19.0114 438.711 18.4261ZM448.979 24.2472C448.143 24.2472 447.399 24.1023 446.746 23.8125C446.092 23.517 445.575 23.0824 445.195 22.5085C444.82 21.929 444.632 21.2074 444.632 20.3438C444.632 19.6165 444.766 19.0057 445.033 18.5114C445.3 18.017 445.663 17.6193 446.124 17.3182C446.584 17.017 447.107 16.7898 447.692 16.6364C448.283 16.483 448.902 16.375 449.55 16.3125C450.311 16.233 450.925 16.1591 451.391 16.0909C451.857 16.017 452.195 15.9091 452.405 15.767C452.615 15.625 452.72 15.4148 452.72 15.1364V15.0852C452.72 14.5455 452.55 14.1278 452.209 13.8324C451.874 13.5369 451.396 13.3892 450.777 13.3892C450.124 13.3892 449.604 13.5341 449.217 13.8239C448.831 14.108 448.575 14.4659 448.45 14.8977L445.092 14.625C445.263 13.8295 445.598 13.142 446.098 12.5625C446.598 11.9773 447.243 11.5284 448.033 11.2159C448.828 10.8977 449.749 10.7386 450.794 10.7386C451.521 10.7386 452.217 10.8239 452.882 10.9943C453.553 11.1648 454.146 11.429 454.663 11.7869C455.186 12.1449 455.598 12.6051 455.899 13.1676C456.2 13.7244 456.351 14.392 456.351 15.1705V24H452.908V22.1847H452.805C452.595 22.5938 452.314 22.9545 451.962 23.267C451.609 23.5739 451.186 23.8153 450.692 23.9915C450.197 24.1619 449.626 24.2472 448.979 24.2472ZM450.018 21.7415C450.553 21.7415 451.024 21.6364 451.433 21.4261C451.842 21.2102 452.163 20.9205 452.396 20.5568C452.629 20.1932 452.746 19.7812 452.746 19.321V17.9318C452.632 18.0057 452.476 18.0739 452.277 18.1364C452.084 18.1932 451.865 18.2472 451.621 18.2983C451.376 18.3437 451.132 18.3864 450.888 18.4261C450.643 18.4602 450.422 18.4915 450.223 18.5199C449.797 18.5824 449.425 18.6818 449.107 18.8182C448.788 18.9545 448.541 19.1392 448.365 19.3722C448.189 19.5994 448.101 19.8835 448.101 20.2244C448.101 20.7188 448.28 21.0966 448.638 21.358C449.001 21.6136 449.462 21.7415 450.018 21.7415ZM462.798 16.4318V24H459.168V10.9091H462.628V13.2188H462.781C463.071 12.4574 463.557 11.8551 464.239 11.4119C464.92 10.9631 465.747 10.7386 466.719 10.7386C467.628 10.7386 468.42 10.9375 469.097 11.3352C469.773 11.733 470.298 12.3011 470.673 13.0398C471.048 13.7727 471.236 14.6477 471.236 15.6648V24H467.605V16.3125C467.611 15.5114 467.406 14.8864 466.991 14.4375C466.577 13.983 466.006 13.7557 465.278 13.7557C464.79 13.7557 464.358 13.8608 463.983 14.071C463.614 14.2812 463.324 14.5881 463.114 14.9915C462.909 15.3892 462.804 15.8693 462.798 16.4318ZM481.06 10.9091V13.6364H473.177V10.9091H481.06ZM474.967 7.77273H478.597V19.9773C478.597 20.3125 478.648 20.5739 478.751 20.7614C478.853 20.9432 478.995 21.071 479.177 21.1449C479.364 21.2187 479.58 21.2557 479.825 21.2557C479.995 21.2557 480.165 21.2415 480.336 21.2131C480.506 21.179 480.637 21.1534 480.728 21.1364L481.299 23.8381C481.117 23.8949 480.862 23.9602 480.532 24.0341C480.202 24.1136 479.802 24.1619 479.33 24.179C478.455 24.2131 477.688 24.0966 477.029 23.8295C476.376 23.5625 475.867 23.1477 475.504 22.5852C475.14 22.0227 474.961 21.3125 474.967 20.4545V7.77273ZM483.425 24V10.9091H487.056V24H483.425ZM485.249 9.22159C484.71 9.22159 484.246 9.04261 483.86 8.68466C483.479 8.32102 483.289 7.88636 483.289 7.38068C483.289 6.88068 483.479 6.4517 483.86 6.09375C484.246 5.73011 484.71 5.54829 485.249 5.54829C485.789 5.54829 486.249 5.73011 486.63 6.09375C487.016 6.4517 487.21 6.88068 487.21 7.38068C487.21 7.88636 487.016 8.32102 486.63 8.68466C486.249 9.04261 485.789 9.22159 485.249 9.22159ZM496.928 10.9091V13.6364H489.044V10.9091H496.928ZM490.834 7.77273H494.464V19.9773C494.464 20.3125 494.516 20.5739 494.618 20.7614C494.72 20.9432 494.862 21.071 495.044 21.1449C495.232 21.2187 495.447 21.2557 495.692 21.2557C495.862 21.2557 496.033 21.2415 496.203 21.2131C496.374 21.179 496.504 21.1534 496.595 21.1364L497.166 23.8381C496.984 23.8949 496.729 23.9602 496.399 24.0341C496.07 24.1136 495.669 24.1619 495.197 24.179C494.322 24.2131 493.555 24.0966 492.896 23.8295C492.243 23.5625 491.734 23.1477 491.371 22.5852C491.007 22.0227 490.828 21.3125 490.834 20.4545V7.77273ZM501.534 28.9091C501.074 28.9091 500.642 28.8722 500.239 28.7983C499.841 28.7301 499.511 28.642 499.25 28.5341L500.068 25.8239C500.494 25.9545 500.878 26.0256 501.219 26.0369C501.565 26.0483 501.864 25.9688 502.114 25.7983C502.369 25.6278 502.577 25.3381 502.736 24.929L502.949 24.375L498.253 10.9091H502.071L504.781 20.5227H504.918L507.653 10.9091H511.497L506.409 25.4148C506.165 26.1193 505.832 26.733 505.412 27.2557C504.997 27.7841 504.472 28.1903 503.835 28.4744C503.199 28.7642 502.432 28.9091 501.534 28.9091Z" fill="black"/>
</svg>
